<svg width="344" height="261" viewBox="0 0 344 261" fill="none" xmlns="http://www.w3.org/2000/svg">
<g clip-path="url(#clip0_6108_2)">
<path d="M310.742 126.776H22.8341V133.483H310.742V126.776Z" fill="#E6E6E6"/>
<path d="M31.6165 123.744C32.3217 123.063 32.7619 122.135 32.7619 121.104V105.083C32.7619 104.041 32.3151 103.099 31.6003 102.416C31.228 102.062 30.7763 101.78 30.2799 101.586C29.8183 101.412 29.3169 101.313 28.7908 101.313C26.5967 101.313 24.8196 103 24.8196 105.083V121.104C24.8196 122.048 25.1871 122.909 25.7904 123.57C24.0356 124.432 22.8341 126.168 22.8341 128.173H34.2511C34.2511 126.293 33.1938 124.652 31.6165 123.744Z" fill="#3F3D56"/>
<path d="M307.894 123.149C308.725 122.458 309.253 121.446 309.253 120.314V104.293C309.253 102.21 307.475 100.523 305.281 100.523C304.755 100.523 304.254 100.622 303.792 100.796C303.296 100.989 302.844 101.272 302.472 101.625C301.757 102.309 301.31 103.251 301.31 104.293V120.314C301.31 121.368 301.772 122.313 302.504 122.996C300.629 123.817 299.325 125.613 299.325 127.702H310.742C310.742 125.737 309.59 124.029 307.894 123.149Z" fill="#3F3D56"/>
<path d="M29.8977 133.064H22.8341V138.068H29.8977V133.064Z" fill="#E6E6E6"/>
<path d="M33.844 138.068H26.3634L26.0358 137.126L24.765 133.483L24.7303 133.385L25.6933 133.064L31.3968 131.165L32.2159 133.483L33.5065 137.126L33.844 138.068Z" fill="#E6E6E6"/>
<path d="M308.845 133.385L308.811 133.483L307.54 137.126L307.212 138.068H299.732L300.069 137.126L301.36 133.483L302.179 131.165L307.882 133.064L308.845 133.385Z" fill="#E6E6E6"/>
<path d="M310.742 133.064H303.678V138.068H310.742V133.064Z" fill="#E6E6E6"/>
<path d="M168.773 0H36.733V48.536H168.773V0Z" fill="#3F3D56"/>
<path d="M168.773 0H36.733V48.536H168.773V0Z" fill="#3F3D56"/>
<path d="M38.7186 0V46.6511H138.689C154.208 46.6511 166.788 34.7087 166.788 19.9769V0H38.7186Z" fill="white"/>
<path d="M332.737 0H11.2631C5.05327 0 0 4.79705 0 10.6921V127.376C0 133.271 5.05327 138.068 11.2631 138.068H332.737C338.947 138.068 344 133.271 344 127.376V10.6921C344 4.79705 338.947 0 332.737 0ZM343.007 127.376C343.007 132.763 338.411 137.126 332.737 137.126H11.2631C5.58938 137.126 0.992785 132.763 0.992785 127.376V10.6921C0.992785 5.30598 5.58938 0.942447 11.2631 0.942447H265.729C308.409 0.942447 343.007 33.7867 343.007 74.3025V127.376V127.376Z" fill="#3F3D56"/>
<path d="M179.381 98.5941H160.95C160.409 98.5941 159.972 99.0135 159.972 99.5318V127.169H180.369V99.5318C180.369 99.0135 179.927 98.5941 179.381 98.5941V98.5941ZM172.407 112.236C172.407 112.703 172.243 113.127 171.965 113.475C171.568 113.975 170.938 114.3 170.228 114.3C169.523 114.3 168.893 113.975 168.495 113.475C168.217 113.127 168.054 112.703 168.054 112.236V109.027C168.064 107.901 169.037 106.982 170.228 106.982C171.419 106.982 172.397 107.901 172.407 109.027V112.236Z" fill="#2F2E41"/>
<path d="M159.908 126.288V128.95C159.908 129.238 160.151 129.473 160.454 129.473H179.883C180.181 129.473 180.429 129.238 180.429 128.95V126.288H159.908V126.288Z" fill="#3F3D56"/>
<path d="M209.905 55.463H131.117C129.712 55.463 128.566 56.5515 128.566 57.8851V108.353C128.566 109.691 129.712 110.78 131.117 110.78H209.905C211.309 110.78 212.456 109.691 212.456 108.353V57.8851C212.456 56.5515 211.309 55.463 209.905 55.463V55.463Z" fill="#3F3D56"/>
<path d="M209.239 57.2112H131.777C131.023 57.2112 130.412 57.7914 130.412 58.5071V93.2511C130.412 101.928 137.891 109.027 147.031 109.027H209.244C209.995 109.027 210.609 108.444 210.609 107.731V58.5118C210.609 57.7965 209.993 57.2112 209.239 57.2112Z" fill="white"/>
<path d="M194.983 129.431L194.392 126.778L194.268 126.208C194.189 125.836 193.841 125.567 193.439 125.567H148.779C148.382 125.567 148.034 125.836 147.95 126.208L147.826 126.778L147.235 129.431C147.185 129.671 147.245 129.916 147.409 130.105C147.568 130.293 147.811 130.402 148.064 130.402H194.154C194.412 130.402 194.65 130.293 194.814 130.105C194.973 129.916 195.038 129.671 194.983 129.431H194.983Z" fill="#3F3D56"/>
<path d="M150.345 126.148H149.291C149.19 126.148 149.108 126.226 149.108 126.322V126.783C149.108 126.879 149.19 126.957 149.291 126.957H150.345C150.446 126.957 150.528 126.879 150.528 126.783V126.322C150.528 126.226 150.446 126.148 150.345 126.148Z" fill="#E6E6E6"/>
<path d="M192.896 127.496H191.843C191.742 127.496 191.66 127.573 191.66 127.67V128.13C191.66 128.226 191.742 128.304 191.843 128.304H192.896C192.998 128.304 193.08 128.226 193.08 128.13V127.67C193.08 127.573 192.998 127.496 192.896 127.496Z" fill="#E6E6E6"/>
<path d="M173.875 129.113H162.885C162.784 129.113 162.702 129.19 162.702 129.287V129.747C162.702 129.843 162.784 129.921 162.885 129.921H173.875C173.976 129.921 174.058 129.843 174.058 129.747V129.287C174.058 129.19 173.976 129.113 173.875 129.113Z" fill="#E6E6E6"/>
<path d="M46.4903 91.839C40.5329 73.0857 40.1597 54.3059 47.1841 35.4911C47.2162 33.1165 49.267 31.2146 51.7686 31.2397L96.5967 31.7371C99.0981 31.7675 101.102 33.7144 101.075 36.089L100.381 92.437C100.349 94.8116 98.2985 96.7134 95.797 96.6883L50.9688 96.1909C48.4674 96.1605 46.4639 94.2137 46.4903 91.839L46.4903 91.839Z" fill="#F2F2F2"/>
<path opacity="0.2" d="M55.7914 94.071C53.2899 94.0405 51.2865 92.0937 51.3129 89.7191C45.3555 70.9657 44.9824 52.1859 52.0067 33.3711C52.0207 32.6223 52.2429 31.8904 52.6506 31.2494L51.7685 31.2395C49.267 31.2145 47.2162 33.1163 47.184 35.4909C40.1597 54.3057 40.5328 73.0854 46.4903 91.8388C46.4639 94.2135 48.4673 96.1603 50.9687 96.1908L95.7968 96.6883C97.4178 96.701 98.9216 95.8883 99.7374 94.5587L55.7914 94.071V94.071Z" fill="black"/>
<path d="M88.8114 63.2198L58.7703 62.9655C57.7748 62.9559 56.976 62.1822 56.986 61.2371C56.996 60.2938 57.8086 59.5361 58.8024 59.5433L88.8435 59.7976C89.839 59.809 90.6362 60.5843 90.6242 61.5293C90.6122 62.47 89.8024 63.2252 88.8114 63.2197L88.8114 63.2198V63.2198Z" fill="white"/>
<path d="M65.4675 53.6378L58.8584 53.5818C57.863 53.5764 57.0606 52.8058 57.0663 51.8608C57.072 50.9158 57.8837 50.1541 58.8792 50.1595L58.8906 50.1597L65.4996 50.2156C66.4951 50.227 67.2923 51.0023 67.2803 51.9473C67.2683 52.888 66.4585 53.6432 65.4675 53.6378V53.6378Z" fill="white"/>
<path d="M88.6701 78.2645L58.6289 78.0102C57.6335 77.9988 56.8363 77.2235 56.8483 76.2785C56.8603 75.3378 57.67 74.5826 58.6611 74.588L88.7023 74.8423C89.6978 74.8478 90.5001 75.6183 90.4944 76.5633C90.4887 77.5083 89.677 78.27 88.6815 78.2646L88.6701 78.2645V78.2645Z" fill="white"/>
<path d="M88.7408 70.7421L58.6996 70.4879C57.7041 70.4806 56.9033 69.7085 56.911 68.7636C56.9187 67.8185 57.7319 67.0583 58.7274 67.0656L58.7317 67.0657L88.7729 67.32C89.7683 67.3314 90.5655 68.1067 90.5535 69.0516C90.5416 69.9924 89.7318 70.7475 88.7407 70.7421L88.7408 70.7421H88.7408Z" fill="white"/>
<path d="M57.8462 39.9968C59.989 39.9968 61.7261 38.3478 61.7261 36.3136C61.7261 34.2794 59.989 32.6304 57.8462 32.6304C55.7034 32.6304 53.9663 34.2794 53.9663 36.3136C53.9663 38.3478 55.7034 39.9968 57.8462 39.9968Z" fill="#3F3D56"/>
<path d="M90.516 40.9393C92.6589 40.9393 94.3959 39.2902 94.3959 37.2561C94.3959 35.2219 92.6589 33.5729 90.516 33.5729C88.3732 33.5729 86.6361 35.2219 86.6361 37.2561C86.6361 39.2902 88.3732 40.9393 90.516 40.9393Z" fill="#3F3D56"/>
<path d="M135.725 63.819C136.635 63.819 137.373 63.1028 137.373 62.2193C137.373 61.3358 136.635 60.6196 135.725 60.6196C134.814 60.6196 134.076 61.3358 134.076 62.2193C134.076 63.1028 134.814 63.819 135.725 63.819Z" fill="#F2F2F2"/>
<path d="M141.419 63.819C142.33 63.819 143.068 63.1028 143.068 62.2193C143.068 61.3358 142.33 60.6196 141.419 60.6196C140.509 60.6196 139.771 61.3358 139.771 62.2193C139.771 63.1028 140.509 63.819 141.419 63.819Z" fill="#F2F2F2"/>
<path d="M147.114 63.819C148.024 63.819 148.762 63.1028 148.762 62.2193C148.762 61.3358 148.024 60.6196 147.114 60.6196C146.203 60.6196 145.465 61.3358 145.465 62.2193C145.465 63.1028 146.203 63.819 147.114 63.819Z" fill="#F2F2F2"/>
<path d="M153.607 63.4836C153.556 63.4836 153.506 63.465 153.468 63.428L152.356 62.3486C152.281 62.2767 152.281 62.1618 152.356 62.0898L153.468 61.0106C153.543 60.9376 153.667 60.9364 153.743 61.0077C153.82 61.0792 153.822 61.1963 153.746 61.2693L152.768 62.2192L153.746 63.1692C153.822 63.2422 153.82 63.3594 153.743 63.4309C153.706 63.4661 153.656 63.4836 153.607 63.4836V63.4836Z" fill="#F2F2F2"/>
<path d="M155.476 63.4836C155.427 63.4836 155.378 63.4661 155.34 63.4309C155.263 63.3594 155.261 63.2423 155.337 63.1692L156.316 62.2192L155.337 61.2694C155.261 61.1964 155.263 61.0792 155.34 61.0077C155.417 60.9361 155.54 60.9375 155.615 61.0106L156.728 62.0899C156.802 62.1618 156.802 62.2767 156.728 62.3486L155.615 63.428C155.577 63.465 155.527 63.4837 155.476 63.4837V63.4836Z" fill="#F2F2F2"/>
<path d="M200.798 60.8048H198.73C198.494 60.8048 198.303 60.9861 198.303 61.21V63.1752C198.303 63.3991 198.494 63.5804 198.73 63.5804H200.798C201.034 63.5804 201.227 63.3991 201.227 63.1752V61.21C201.227 60.9861 201.034 60.8048 200.798 60.8048Z" fill="#F2F2F2"/>
<path d="M195.73 60.8048H193.662C193.426 60.8048 193.235 60.9861 193.235 61.21V63.1752C193.235 63.3991 193.426 63.5804 193.662 63.5804H195.73C195.966 63.5804 196.159 63.3991 196.159 63.1752V61.21C196.159 60.9861 195.966 60.8048 195.73 60.8048Z" fill="#F2F2F2"/>
<path d="M205.574 60.8973H203.506C203.27 60.8973 203.079 61.0786 203.079 61.3026V63.2677C203.079 63.4916 203.27 63.6729 203.506 63.6729H205.574C205.81 63.6729 206.003 63.4916 206.003 63.2677V61.3026C206.003 61.0786 205.81 60.8973 205.574 60.8973Z" fill="#F2F2F2"/>
<path d="M178.3 61.6449H170.345C170.056 61.6449 169.824 61.8669 169.824 62.1389C169.824 62.411 170.056 62.633 170.345 62.633H178.3C178.586 62.633 178.82 62.4109 178.82 62.1389C178.82 61.8669 178.586 61.6449 178.3 61.6449Z" fill="#F2F2F2"/>
<path d="M150.452 15.1686C149.517 12.2278 149.459 9.28279 150.56 6.33231C150.566 5.95994 150.887 5.6617 151.279 5.66563L158.309 5.74363C158.701 5.7484 159.016 6.0537 159.011 6.42609L158.903 15.2624C158.898 15.6348 158.576 15.933 158.184 15.9291L151.154 15.8511C150.762 15.8463 150.448 15.541 150.452 15.1686V15.1686Z" fill="#F2F2F2"/>
<path opacity="0.2" d="M151.91 15.5186C151.518 15.5138 151.204 15.2085 151.208 14.8362C150.274 11.8953 150.215 8.95034 151.317 5.99986C151.319 5.88244 151.354 5.76767 151.418 5.66714L151.279 5.6656C150.887 5.66167 150.566 5.9599 150.56 6.33228C149.459 9.28276 149.517 12.2277 150.452 15.1686C150.448 15.541 150.762 15.8463 151.154 15.851L158.184 15.929C158.438 15.931 158.674 15.8036 158.802 15.5951L151.91 15.5186V15.5186Z" fill="black"/>
<path d="M135.56 15.1686C134.626 12.2278 134.567 9.28279 135.669 6.33231C135.674 5.95994 135.995 5.6617 136.388 5.66563L143.417 5.74363C143.81 5.7484 144.124 6.0537 144.12 6.42609L144.011 15.2624C144.006 15.6348 143.684 15.933 143.292 15.9291L136.262 15.8511C135.87 15.8463 135.556 15.541 135.56 15.1686V15.1686Z" fill="#F2F2F2"/>
<path opacity="0.2" d="M137.018 15.5186C136.626 15.5138 136.312 15.2085 136.316 14.8362C135.382 11.8953 135.323 8.95034 136.425 5.99986C136.427 5.88244 136.462 5.76767 136.526 5.66714L136.388 5.6656C135.995 5.66167 135.674 5.9599 135.669 6.33228C134.567 9.28276 134.626 12.2277 135.56 15.1686C135.556 15.541 135.87 15.8463 136.262 15.851L143.292 15.929C143.546 15.931 143.782 15.8036 143.91 15.5951L137.018 15.5186V15.5186Z" fill="black"/>
<path d="M123.646 15.1686C122.712 12.2278 122.654 9.28279 123.755 6.33231C123.76 5.95994 124.082 5.6617 124.474 5.66563L131.504 5.74363C131.896 5.7484 132.21 6.0537 132.206 6.42609L132.097 15.2624C132.092 15.6348 131.771 15.933 131.379 15.9291L124.349 15.8511C123.957 15.8463 123.642 15.541 123.646 15.1686V15.1686Z" fill="#F2F2F2"/>
<path opacity="0.2" d="M125.105 15.5186C124.713 15.5138 124.399 15.2085 124.403 14.8362C123.469 11.8953 123.41 8.95034 124.512 5.99986C124.514 5.88244 124.549 5.76767 124.613 5.66714L124.474 5.6656C124.082 5.66167 123.76 5.9599 123.755 6.33228C122.654 9.28276 122.712 12.2277 123.646 15.1686C123.642 15.541 123.957 15.8463 124.349 15.851L131.379 15.929C131.633 15.931 131.869 15.8036 131.996 15.5951L125.105 15.5186Z" fill="black"/>
<path d="M128.491 8.98785C129.245 8.98785 129.857 8.40755 129.857 7.69171C129.857 6.97587 129.245 6.39557 128.491 6.39557C127.737 6.39557 127.126 6.97587 127.126 7.69171C127.126 8.40755 127.737 8.98785 128.491 8.98785Z" fill="#3F3D56"/>
<path d="M139.908 8.98785C140.663 8.98785 141.274 8.40755 141.274 7.69171C141.274 6.97587 140.663 6.39557 139.908 6.39557C139.154 6.39557 138.543 6.97587 138.543 7.69171C138.543 8.40755 139.154 8.98785 139.908 8.98785Z" fill="#3F3D56"/>
<path d="M154.304 8.98785C155.058 8.98785 155.669 8.40755 155.669 7.69171C155.669 6.97587 155.058 6.39557 154.304 6.39557C153.55 6.39557 152.938 6.97587 152.938 7.69171C152.938 8.40755 153.55 8.98785 154.304 8.98785Z" fill="#3F3D56"/>
<path d="M31.7691 105.083V121.104C31.7691 122.145 31.3249 123.087 30.6072 123.769C30.1223 124.229 29.2872 123.882 29.2872 123.231V102.95C29.2872 102.305 30.1137 101.951 30.5964 102.405L30.6075 102.416C31.3224 103.099 31.7691 104.041 31.7691 105.083L31.7691 105.083Z" fill="#6C63FF"/>
<path d="M302.303 104.293V120.314C302.303 121.355 302.747 122.296 303.465 122.978C303.95 123.439 304.785 123.092 304.785 122.441V102.16C304.785 101.515 303.958 101.16 303.476 101.615L303.465 101.625C302.75 102.309 302.303 103.251 302.303 104.293V104.293Z" fill="#6C63FF"/>
<path d="M249.685 14.1367H215.434V52.7771H249.685V14.1367Z" fill="#3F3D56"/>
<path d="M217.42 50.8921H247.7V16.0216H217.42V50.8921Z" fill="white"/>
<path d="M232.48 18.8489C230.252 18.8489 228.162 19.4238 226.37 20.4228C223.818 21.8459 221.863 24.1313 220.954 26.8597C220.592 27.953 220.398 29.1122 220.398 30.3185V48.0648H244.722V18.8489H232.48Z" fill="#3F3D56"/>
<path d="M238.855 48.0516H224.866C225.543 46.2297 226.988 44.7505 228.833 43.971C229.758 43.5765 230.782 43.3558 231.86 43.3558C232.637 43.3558 233.389 43.4685 234.091 43.6845C236.312 44.3466 238.083 45.9761 238.855 48.0516Z" fill="#6C63FF"/>
<path d="M222.384 40.5252C221.699 40.5252 221.029 40.6148 220.398 40.7797V48.0648H229.81C229.825 47.9093 229.83 47.7538 229.83 47.5936C229.83 46.2695 229.443 45.0254 228.777 43.9699C227.472 41.9059 225.099 40.5252 222.384 40.5252Z" fill="#6C63FF"/>
<path d="M244.722 26.8466V20.742C243.485 19.8592 241.942 19.3333 240.27 19.3333C237.692 19.3333 235.422 20.5824 234.091 22.4795C233.389 22.2635 232.637 22.1508 231.86 22.1508C230.782 22.1508 229.758 22.3715 228.833 22.7659C228.818 22.7721 228.805 22.7803 228.79 22.7866C228.786 22.7795 228.782 22.7719 228.777 22.7648C228.177 21.8177 227.353 21.0118 226.37 20.4228C223.818 21.8459 221.863 24.1313 220.954 26.8597H224.871C226.12 30.0647 227.41 32.1065 228.732 33.1924C225.995 34.4065 224.947 37.63 226.379 40.1631C229.2 45.1503 231.397 46.1858 233.28 45.2264C233.004 45.9634 232.85 46.7555 232.85 47.5821C232.85 47.7417 232.855 47.8967 232.869 48.0516H244.722V41.9471C243.485 41.0643 241.942 40.5384 240.27 40.5384C238.918 40.5384 237.653 40.8843 236.562 41.4842L236.586 41.4447C238.115 38.8579 240.965 37.2267 244.09 37.2267H244.721V31.1221C243.485 30.2393 241.941 29.7134 240.27 29.7134C238.695 29.7134 237.236 30.1814 236.035 30.9768L236.083 30.9181C238.165 28.3764 241.33 26.8466 244.721 26.8466V26.8466L244.722 26.8466Z" fill="#6C63FF"/>
<path d="M231.815 21.205H231.319V48.0648H231.815V21.205Z" fill="#3F3D56"/>
<path d="M251.759 252.887L247.994 252.857L246.327 238.748L251.885 238.793L251.759 252.887Z" fill="#FFB6B6"/>
<path d="M239.698 258.571C239.69 259.451 240.437 260.175 241.367 260.183L248.854 260.242L250.165 257.72L250.646 260.255L253.471 260.28L252.758 251.239L251.775 251.177L247.766 250.915L246.473 250.832L246.45 253.39L240.436 257.263C239.979 257.558 239.703 258.046 239.698 258.571V258.571Z" fill="#2F2E41"/>
<path d="M292.945 252.887L289.179 252.857L287.512 238.748L293.07 238.793L292.945 252.887Z" fill="#FFB6B6"/>
<path d="M280.884 258.571C280.875 259.451 281.622 260.175 282.553 260.183L290.039 260.242L291.35 257.72L291.831 260.255L294.656 260.28L293.943 251.239L292.96 251.177L288.951 250.915L287.658 250.832L287.635 253.39L281.621 257.263C281.164 257.558 280.888 258.046 280.884 258.571V258.571Z" fill="#2F2E41"/>
<path d="M230.856 49.5865C232.439 50.987 232.291 53.4952 230.548 54.7123L234.842 71.0129L230.385 73.2489L225.434 53.853C224.564 52.5766 224.688 50.8575 225.84 49.7071C227.19 48.3589 229.436 48.3049 230.856 49.5865H230.856Z" fill="#FFB6B6"/>
<path d="M252.931 141.599H284.339C284.339 141.599 293.927 154.944 291.74 167.399L287.184 204.247L296.843 247.323L287.549 248.188L271.512 204.247L269.325 177.606L265.316 206.323L252.931 246.89L243.995 246.977L249.279 205.977L251.471 167.344C251.471 167.344 252.81 164.669 251.683 163.612C250.555 162.555 251.849 160.679 251.849 160.679C251.849 160.679 253.576 158.083 252.066 156.859C250.555 155.636 252.931 141.599 252.931 141.599V141.599Z" fill="#2F2E41"/>
<path d="M295.354 152.522C295.354 152.522 266.925 145.256 268.018 153.56C268.502 157.236 252.645 154.912 247.75 154.366L252.528 134.703L244.605 153.961C243.161 153.746 242.265 153.58 242.265 153.58L252.711 129.34C252.711 129.34 253.804 105.813 251.562 100.045C249.321 94.2778 254.897 91.9735 254.897 91.9735C260.406 88.094 263.035 84.2617 260.696 80.5108L272.756 81.4969L273.85 87.1296L284.106 91.8697L279.108 119.93C279.108 119.93 278.458 120.611 278.888 121.17C279.317 121.729 279.391 122.174 278.625 122.643C277.859 123.113 278.216 124.939 278.216 124.939C278.216 124.939 278.253 126.069 278.967 126.148C279.681 126.226 279.438 126.906 279.438 126.906C279.438 126.906 279.391 128.277 280.083 127.944C280.548 127.72 290.864 146.549 291.651 146.249C292.438 145.948 292.166 148.169 292.849 148.269C293.531 148.37 293.536 149.432 293.83 149.931C294.77 151.524 295.354 152.522 295.354 152.522V152.522Z" fill="#6C63FF"/>
<path d="M263.139 101.515L264.379 90.5347L248.208 86.8266L231.967 58.4124L226.865 60.4884V65.3322C226.865 65.3322 222.491 69.4841 237.242 89.236L241.443 94.7414L264.379 104.966L263.139 101.515V101.515Z" fill="#6C63FF"/>
<path d="M249.246 36.186C248.708 38.1755 250.255 40.213 252.415 40.3468L258.048 56.2757L263.072 55.8798L256.236 37.0073C256.244 35.4873 255.164 34.1024 253.541 33.7224C251.638 33.277 249.716 34.38 249.246 36.186L249.246 36.186Z" fill="#FFB6B6"/>
<path d="M283.778 95.818V95.818C287.898 93.2558 288.405 87.7078 284.81 84.5107L267.468 69.0854C267.468 69.0854 268.122 44.9218 261.382 44.8629L259.925 40.5412L252.086 44.0926L253.038 47.6645C253.038 47.6645 253.551 62.4456 258.157 66.8537C258.24 73.0802 260.989 74.7305 260.989 74.7305L283.778 95.818Z" fill="#6C63FF"/>
<path d="M268.199 80.0779C273.906 80.0779 278.532 75.6862 278.532 70.2687C278.532 64.8513 273.906 60.4595 268.199 60.4595C262.492 60.4595 257.866 64.8513 257.866 70.2687C257.866 75.6862 262.492 80.0779 268.199 80.0779Z" fill="#FFB6B6"/>
<path d="M293.306 96.8118C293.232 98.2209 292.522 99.5734 291.206 100.219C290.79 100.417 290.353 100.568 289.901 100.676C289.886 100.535 289.861 100.398 289.837 100.261C289.425 97.9429 288.402 95.7329 286.908 93.8667C286.198 92.9808 288.164 98.0041 288.66 100.831C288.208 99.9739 285.91 94.47 285.761 94.2627C285.761 94.2721 285.771 94.3004 285.791 94.3616C286.535 96.4961 286.873 98.7582 286.818 101.01C283.939 104.908 281.433 105.958 279.124 105.52C279.819 103.739 279.745 101.675 278.807 99.988C278.548 101.647 277.64 103.188 276.34 104.318C275.248 103.598 274.185 102.641 273.128 101.628C274.791 99.7289 275.942 97.434 276.419 95.0072C277.099 91.6097 276.449 87.986 274.627 84.9937C275.506 91.0676 273.058 97.4528 268.397 101.675C267.295 101.515 266.303 101.1 265.861 100.167C265.449 99.2906 265.727 98.2538 266.248 97.434C266.759 96.6139 264.967 92.6511 265.568 91.8877C268.08 88.7115 270.467 87.1849 267.777 84.1454C266.541 82.746 264.818 81.6715 264.079 79.9844C263.146 77.8593 264.044 75.4326 265.126 73.3781C266.213 71.3188 269.832 72.2801 267.409 72.0914C263.245 71.7712 265.062 68.5621 264.148 67.2239C263.637 66.4745 262.376 66.5971 261.433 66.5877C261.1 65.5274 260.634 64.5001 260.048 63.5388C260.197 64.5802 260.252 65.6358 260.212 66.6866C259.457 66.8091 258.231 68.0108 257.581 68.3971L257.343 68.5055C256.424 68.006 256.561 67.0721 256.556 66.0638C256.546 65.0554 254.5 64.0894 255.066 63.2365C256.571 60.9793 256.087 59.7078 258.877 59.3638C261.666 59.0198 264.262 58.0162 266.322 59.835C268.308 56.0652 276.037 59.3921 277.903 60.1035C279.77 60.8198 281.274 62.3373 281.909 64.1467C283.388 68.3405 282.639 70.2726 285.185 73.9717C287.365 77.1382 290.447 75.6445 291.892 79.1692C292.8 81.3935 291.718 83.8532 290.755 86.054C289.792 88.2592 287.801 93.2776 290.283 92.9196C292.398 92.6085 293.425 94.6066 293.306 96.8118V96.8118Z" fill="#2F2E41"/>
<path d="M303.059 252.832C304.085 252.893 304.652 251.684 303.876 250.979L303.799 250.688C303.809 250.664 303.819 250.641 303.829 250.618C304.866 248.27 308.381 248.286 309.409 250.637C310.322 252.724 311.484 254.814 311.77 257.02C311.898 257.994 311.841 258.987 311.613 259.942C313.752 255.508 314.877 250.665 314.877 245.796C314.877 244.572 314.806 243.349 314.662 242.128C314.543 241.13 314.38 240.138 314.168 239.155C313.024 233.841 310.545 228.779 306.971 224.552C305.252 223.66 303.819 222.266 302.953 220.595C302.642 219.992 302.399 219.344 302.283 218.684C302.479 218.708 303.021 215.88 302.873 215.707C303.146 215.314 303.634 215.119 303.931 214.736C305.412 212.831 307.451 213.163 308.516 215.753C310.791 216.842 310.813 218.65 309.417 220.388C308.529 221.494 308.407 222.99 307.628 224.174C307.708 224.272 307.791 224.366 307.872 224.463C309.341 226.253 310.613 228.177 311.684 230.197C311.381 227.952 311.829 225.246 312.591 223.502C313.459 221.514 315.085 219.841 316.518 218.123C318.238 216.059 321.766 216.96 322.069 219.576C322.072 219.601 322.075 219.626 322.078 219.651C321.865 219.765 321.657 219.886 321.453 220.014C320.292 220.743 320.693 222.452 322.069 222.654L322.1 222.659C322.023 223.386 321.892 224.107 321.7 224.816C323.537 231.562 319.57 234.019 313.905 234.13C313.78 234.191 313.659 234.251 313.534 234.309C314.107 235.843 314.566 237.417 314.906 239.012C315.21 240.421 315.422 241.845 315.541 243.276C315.688 245.08 315.675 246.894 315.515 248.696L315.525 248.632C315.932 246.648 317.067 244.794 318.715 243.51C321.17 241.596 324.638 240.891 327.286 239.352C328.561 238.611 330.195 239.568 329.973 240.971L329.962 241.039C329.567 241.191 329.183 241.367 328.811 241.565C328.598 241.679 328.39 241.8 328.186 241.928C327.025 242.657 327.426 244.366 328.802 244.568L328.833 244.572C328.856 244.575 328.875 244.578 328.897 244.581C328.221 246.106 327.278 247.521 326.098 248.742C324.949 254.631 320.015 255.19 314.736 253.475H314.733C314.156 255.861 313.312 258.192 312.229 260.414H303.284C303.251 260.32 303.223 260.222 303.194 260.128C304.021 260.177 304.855 260.131 305.669 259.988C305.005 259.215 304.342 258.436 303.678 257.663C303.662 257.647 303.649 257.632 303.636 257.617C303.3 257.221 302.96 256.829 302.623 256.433L302.623 256.433C302.602 255.218 302.755 254.007 303.059 252.832L303.059 252.832V252.832Z" fill="#F2F2F2"/>
<path d="M203.107 260.439C203.107 260.75 203.37 261 203.698 261H329.429C329.757 261 330.02 260.75 330.02 260.439C330.02 260.128 329.757 259.878 329.429 259.878H203.698C203.37 259.878 203.107 260.128 203.107 260.439V260.439Z" fill="#CCCCCC"/>
</g>
<defs>
<clipPath id="clip0_6108_2">
<rect width="344" height="261" fill="white"/>
</clipPath>
</defs>
</svg>
