<svg width="87" height="88" viewBox="0 0 87 88" fill="none" xmlns="http://www.w3.org/2000/svg">
<path d="M43.5 17.9844C29.3819 17.9844 17.9049 29.5273 17.8855 43.7266C17.8855 48.5898 19.2449 53.3359 21.8083 57.418L22.4103 58.3945L19.8275 67.8867L29.5179 65.3281L30.45 65.8945C34.3728 68.2383 38.8781 69.4883 43.4806 69.4883H43.5C57.5987 69.4883 69.3864 57.9453 69.3864 43.7461C69.3864 36.8711 66.4346 30.4062 61.5991 25.543C56.7442 20.6602 50.3357 17.9844 43.5 17.9844ZM58.5502 54.7813C57.9094 56.5977 54.8411 58.2383 53.3652 58.4531C50.9183 58.8242 49.0152 58.6289 44.1409 56.5195C36.4313 53.1602 31.3821 45.3477 30.9938 44.8398C30.6054 44.332 27.8478 40.6406 27.8478 36.832C27.8478 33.0234 29.8286 31.1484 30.5471 30.3672C31.2462 29.5859 32.0812 29.3906 32.6056 29.3906C33.1105 29.3906 33.6348 29.3906 34.0815 29.4102C34.5475 29.4297 35.1884 29.2344 35.8098 30.7383C36.4507 32.2812 37.9848 36.0898 38.179 36.4805C38.3732 36.8711 38.5092 37.3203 38.2373 37.8281C36.7614 40.7969 35.1884 40.6797 35.9846 42.0469C38.9558 47.1836 41.927 48.9609 46.4518 51.2461C47.2286 51.6367 47.6752 51.5781 48.1219 51.0508C48.5685 50.543 50.0444 48.7852 50.5493 48.0234C51.0542 47.2422 51.5786 47.3789 52.2777 47.6328C52.9768 47.8867 56.7636 49.7617 57.5404 50.1523C58.3172 50.543 58.8221 50.7383 59.0163 51.0508C59.1911 51.4219 59.1911 52.9844 58.5502 54.7813ZM77.6786 0.25H9.32143C4.17522 0.25 0 4.44922 0 9.625V78.375C0 83.5508 4.17522 87.75 9.32143 87.75H77.6786C82.8248 87.75 87 83.5508 87 78.375V9.625C87 4.44922 82.8248 0.25 77.6786 0.25ZM43.4806 74.7031C38.315 74.7031 33.2464 73.3945 28.7605 70.9336L12.4286 75.25L16.798 59.1953C14.0987 54.5078 12.681 49.1758 12.681 43.707C12.7004 26.6367 26.5078 12.75 43.4806 12.75C51.7145 12.75 59.4435 15.9727 65.2694 21.832C71.0759 27.6914 74.5714 35.4648 74.5714 43.7461C74.5714 60.8164 60.4533 74.7031 43.4806 74.7031Z" fill="#7C0333"/>
</svg>
